<svg width="64" height="81" fill="none" xmlns="http://www.w3.org/2000/svg"><path d="M59.135 70.1H5.08a4.14 4.14 0 0 1-3.915-5.493l3.904-11.31a44.956 44.956 0 0 0 2.467-14.7v-7.34A25.097 25.097 0 0 1 22.967 8.28a9.318 9.318 0 0 1 18.283 0 25.096 25.096 0 0 1 15.433 22.95v7.366a45.017 45.017 0 0 0 2.466 14.714l3.904 11.31a4.143 4.143 0 0 1-3.914 5.493l-.004-.014zM6.332 65.067h51.552L54.39 54.94a50.059 50.059 0 0 1-2.74-16.343v-7.34a20.067 20.067 0 0 0-13.56-18.802l-1.697-.586V10.07a4.282 4.282 0 1 0-8.563 0v1.798l-1.704.586a20.082 20.082 0 0 0-13.56 18.826v7.316a49.97 49.97 0 0 1-2.743 16.357l-3.49 10.113zm25.776 15.7a6.797 6.797 0 0 0 6.798-6.799H25.31a6.798 6.798 0 0 0 6.798 6.798z" fill="#EFEFEF"/></svg>