<svg id="Calque_1" xmlns="http://www.w3.org/2000/svg" viewBox="0 0 80 80"><style>.st0{fill:rgba(0,101,202, 0.7)}</style><path class="st0" d="M40 8c17.6 0 32 14.4 32 32S57.6 72 40 72 8 57.6 8 40 22.4 8 40 8zm0-8C17.9 0 0 17.9 0 40s17.9 40 40 40 40-17.9 40-40S62.1 0 40 0z"/><path class="st0" d="M53.3 45.6l-10.6-5.1V24.1c0-2.2-1.8-4-4-4s-4 1.8-4 4v19.4c0 .1.1.2.1.4s.1.2.1.4c0 .1.1.2.2.4.1.1.1.2.2.3.1.1.1.2.2.3.1.1.2.2.2.3l.3.3c.1.1.2.2.3.2.1.1.2.2.4.2.1 0 .1.1.2.1l12.9 6.2c.6.3 1.1.4 1.7.4 1.5 0 2.9-.8 3.6-2.3 1.1-1.8.2-4.2-1.8-5.1z"/></svg>