<svg width="63" height="81" fill="none" xmlns="http://www.w3.org/2000/svg"><path d="M62.095 19.107a2.53 2.53 0 0 0-.918-2.041L44.307 3.123l-1.969-1.64a2.527 2.527 0 0 0-.614-.362.112.112 0 0 1-.036 0l-.26-.09-.137-.036c-.073 0-.145-.033-.217-.043L40.828.93H2.95a2.53 2.53 0 0 0-2.53 2.53L.463 78.4a2.53 2.53 0 0 0 2.53 2.53h56.572a2.53 2.53 0 0 0 2.53-2.53V19.108zM43.23 8.817l9.202 7.674h-9.202V8.817zM5.52 75.843l-.04-69.88h32.692V19.02a2.53 2.53 0 0 0 2.529 2.53h16.334v54.293H5.522z" fill="#EFEFEF"/><path d="M49.813 37.516h-37.11a2.529 2.529 0 1 1 0-5.059h37.11a2.53 2.53 0 1 1 0 5.059zm0 13.14h-37.11a2.53 2.53 0 0 1 0-5.058h37.11a2.53 2.53 0 0 1 0 5.058zm0 13.144h-37.11a2.529 2.529 0 1 1 0-5.058h37.11a2.529 2.529 0 1 1 0 5.058z" fill="#EFEFEF"/></svg>