<svg width="94" height="122" fill="none" xmlns="http://www.w3.org/2000/svg"><g opacity=".6"><path opacity=".6" d="M93.571 27.831a3.848 3.848 0 0 0-1.385-3.093L66.74 3.61l-2.97-2.486a3.818 3.818 0 0 0-.927-.547.169.169 0 0 1-.054 0L62.397.44l-.208-.055c-.109 0-.218-.049-.327-.066l-.37-.032H4.354a3.806 3.806 0 0 0-2.698 1.122A3.841 3.841 0 0 0 .54 4.12l.065 113.563c0 1.016.402 1.991 1.118 2.71a3.809 3.809 0 0 0 2.697 1.122h85.337a3.808 3.808 0 0 0 2.697-1.122 3.841 3.841 0 0 0 1.118-2.71V27.832zM65.116 12.24l13.881 11.628H65.116V12.24zM8.234 113.805L8.174 7.913h49.312V27.7a3.84 3.84 0 0 0 1.118 2.71 3.804 3.804 0 0 0 2.697 1.122h24.64v82.273H8.234z" fill="#DADADA"/><path opacity=".6" d="M28.54 47.712l5.35 6.015c3.048-3.75 6.758-5.625 11.133-5.625 2.422 0 4.297.586 5.625 1.68 1.29 1.094 1.954 2.46 1.954 4.101 0 1.485-.664 2.93-1.993 4.258-1.328 1.328-2.812 2.5-4.453 3.438-1.64.937-3.125 2.304-4.453 4.023-1.328 1.758-1.992 3.711-1.992 5.899 0 2.734.937 5 2.891 6.796l7.031-2.343c-1.172-1.016-1.758-2.188-1.758-3.594 0-1.25.469-2.461 1.484-3.633.977-1.133 2.149-2.187 3.555-3.164 1.406-.937 2.813-1.992 4.219-3.086 1.406-1.094 2.578-2.5 3.594-4.219.976-1.718 1.484-3.71 1.484-5.898 0-3.672-1.484-6.68-4.414-9.023-2.969-2.344-6.914-3.516-11.836-3.516-7.305 0-13.125 2.617-17.422 7.89zm11.327 41.562c0 1.563.547 2.852 1.641 3.945 1.094 1.094 2.383 1.641 3.945 1.641 1.563 0 2.891-.547 3.985-1.641 1.093-1.093 1.64-2.382 1.64-3.945 0-1.562-.547-2.891-1.64-3.984-1.094-1.094-2.422-1.641-3.985-1.641-1.562 0-2.851.547-3.945 1.641-1.094 1.093-1.641 2.422-1.641 3.984z" fill="#E9E9E9"/></g></svg>