<svg width="447" height="447" fill="none" xmlns="http://www.w3.org/2000/svg"><path transform="rotate(45 193.39 229.717)" fill="#F8F8F8" stroke="#000" stroke-width="8" d="M193.39 229.717H228.67V276.649H193.39z"/><path d="M151.244 254.435a8 8 0 0 1 11.314 0l31.06 31.061a7.999 7.999 0 0 1 0 11.314l-67.321 67.321c-11.701 11.701-30.673 11.701-42.374 0-11.701-11.702-11.701-30.673 0-42.374l67.321-67.322z" fill="#F8F8F8" stroke="#000" stroke-width="8"/><circle cx="279.672" cy="167.328" r="83.396" fill="#0065CA"/><path d="M210.672 184.93h25.469V197h9.336v-12.07h7.109v-8.243h-7.109v-33.046h-12.891l-21.914 33.75v7.539zm9.219-8.243l16.25-24.648v24.648h-16.25zm38.242-6.328c0 3.477.429 6.797 1.289 10 .859 3.203 2.109 6.172 3.75 8.828 1.64 2.657 3.867 4.805 6.719 6.407 2.812 1.601 6.015 2.383 9.609 2.383 3.555 0 6.758-.782 9.57-2.383 2.813-1.602 5.078-3.75 6.719-6.407a33.093 33.093 0 0 0 3.789-8.828c.859-3.203 1.289-6.523 1.289-10 0-3.437-.43-6.797-1.289-10a32.596 32.596 0 0 0-3.789-8.75c-1.641-2.656-3.906-4.765-6.719-6.367-2.812-1.562-6.015-2.383-9.57-2.383-3.594 0-6.797.821-9.609 2.383-2.852 1.602-5.079 3.711-6.719 6.367-1.641 2.657-2.891 5.547-3.75 8.75-.86 3.203-1.289 6.563-1.289 10zm9.531 0c0-3.554.352-6.718 1.055-9.492.703-2.773 1.992-5.078 3.828-6.953 1.836-1.836 4.14-2.773 6.914-2.773 2.773 0 5.078.937 6.953 2.773 1.836 1.875 3.125 4.18 3.828 6.953.703 2.774 1.094 5.938 1.094 9.492 0 5.625-.977 10.235-2.891 13.868-1.953 3.632-4.922 5.429-8.984 5.429-4.063 0-7.031-1.797-8.945-5.429-1.914-3.633-2.852-8.243-2.852-13.868zm38.711 14.571h25.469V197h9.336v-12.07h7.109v-8.243h-7.109v-33.046h-12.891l-21.914 33.75v7.539zm9.219-8.243l16.25-24.648v24.648h-16.25z" fill="#F8F8F8"/><path d="M219.122 228.344c33.57 33.569 87.996 33.569 121.565 0 33.569-33.57 33.569-87.996 0-121.565-33.569-33.57-87.995-33.57-121.565 0-33.569 33.569-33.569 87.995 0 121.565zm139.172 17.606c-43.293 43.293-113.485 43.293-156.778 0-43.293-43.293-43.293-113.485 0-156.778 43.293-43.293 113.485-43.293 156.778 0 43.293 43.293 43.293 113.485 0 156.778z" fill="#F8F8F8" stroke="#000" stroke-width="8"/></svg>