<svg width="69" height="81" fill="none" xmlns="http://www.w3.org/2000/svg"><path d="M23.348 44.126a2.255 2.255 0 0 1-1.595-.66L8.224 29.936a2.255 2.255 0 0 1 0-3.189L26.331 8.644a2.255 2.255 0 0 1 1.595-.645 2.255 2.255 0 0 1 1.594.645l13.53 13.529a2.255 2.255 0 0 1 0 3.19L24.943 43.465a2.255 2.255 0 0 1-1.595.66zM13.011 28.342l10.337 10.337 14.918-14.915L27.929 13.43 13.01 28.342z" fill="#EFEFEF"/><path d="M41.593 25.99a2.253 2.253 0 0 1-1.61-.66l-13.62-13.633a2.254 2.254 0 0 1-.296-2.822l4.268-6.568c.085-.132.183-.255.293-.367 2.194-2.19 6.001-1.949 8.495.541l10.089 10.092a6.88 6.88 0 0 1 2.02 4.13 5.36 5.36 0 0 1-1.479 4.362 2.29 2.29 0 0 1-.364.296l-6.568 4.265a2.254 2.254 0 0 1-1.228.364zM30.843 9.8l11.053 11.049 4.755-3.09c.09-.185.122-.394.093-.598a2.397 2.397 0 0 0-.721-1.398L35.93 5.67c-.676-.68-1.568-.87-1.997-.644L30.843 9.8zM16.97 51.596a5.41 5.41 0 0 1-.602-.032 6.875 6.875 0 0 1-4.13-2.016L2.148 39.455c-2.49-2.49-2.734-6.297-.54-8.491.11-.112.232-.211.364-.296l6.568-4.275a2.254 2.254 0 0 1 2.825.296l13.632 13.633a2.255 2.255 0 0 1 .297 2.822l-4.281 6.578a2.146 2.146 0 0 1-.297.367 5.28 5.28 0 0 1-3.746 1.507zM4.71 34.27c-.245.428-.052 1.318.644 1.997l10.073 10.099c.372.39.864.643 1.398.718.205.03.415-.002.602-.09l3.09-4.758L9.464 31.186 4.71 34.27zm52.24 31.614h-.032a2.256 2.256 0 0 1-1.61-.706L28.421 36.701a2.255 2.255 0 0 1 .045-3.14l4.742-4.746a2.255 2.255 0 0 1 3.144-.045l28.483 26.885a2.254 2.254 0 0 1 .542 2.492c-.114.28-.281.534-.494.749l-6.346 6.343a2.255 2.255 0 0 1-1.588.644zM33.212 35.19l23.786 25.204 3.06-3.064-25.193-23.786-1.653 1.646z" fill="#EFEFEF"/><path d="M61.28 68.592a6.97 6.97 0 0 1-6.347-4.088 2.254 2.254 0 0 1 .46-2.529l6.244-6.246a2.255 2.255 0 0 1 2.528-.457 6.896 6.896 0 0 1 2.046 1.414 6.975 6.975 0 0 1-4.932 11.906zm-1.267-4.861a2.465 2.465 0 0 0 3.383-3.382l-3.383 3.382zM39.564 80.443H6.288a2.255 2.255 0 0 1-2.255-2.255V76.44a8.833 8.833 0 0 1 8.823-8.813h20.14a8.833 8.833 0 0 1 8.823 8.823v1.749a2.255 2.255 0 0 1-2.255 2.245zm-30.992-4.51H37.28a4.317 4.317 0 0 0-4.284-3.798h-20.14a4.32 4.32 0 0 0-4.284 3.798z" fill="#EFEFEF"/></svg>