<svg width="249" height="182" fill="none" xmlns="http://www.w3.org/2000/svg"><path d="M247.126 108.23c-1.296-2.268-3.77-3.676-6.455-3.676h-.066l-24.508-69.958c2.106-1.048 3.501-3.135 3.528-5.555.035-3.19-2.316-5.854-5.592-6.333a92.832 92.832 0 0 0-25.697-.14c-1.341.112-19.805 1.588-36.422-1.03-2.014-.317-3.902.997-4.229 2.932-.329 1.936 1.033 3.761 3.041 4.077 18.09 2.85 37.549 1.159 38.369 1.085.056-.005 10.978-1.285 18.128-.537-4.856.884-8.895 1.98-12.836 3.05-8.812 2.393-17.135 4.653-34.251 4.653-7.128 0-13.186-.39-18.806-1.214l2.202-10.808c.525-2.577-.32-5.105-1.897-7.247-2.552-3.465-8.146-3.192-8.146-3.192l-3.4-10.086C129.232 1.708 126.793 0 124.02 0c-2.774 0-5.213 1.708-6.069 4.25l-3.4 10.087c-9.032 0-9.137 4.539-9.47 5.282-18.06 5.12-43.785 3.082-45.378 2.949a92.882 92.882 0 0 0-25.696.14c-3.275.48-5.627 3.143-5.59 6.333.025 2.335 1.326 4.357 3.306 5.438L7.434 103.81H7.37c-2.686 0-5.16 1.409-6.455 3.677a6.882 6.882 0 0 0 .227 7.222l3.737 5.693c2.91 4.434 7.9 7.082 13.343 7.082h5.595c2.035 0 3.684-1.59 3.684-3.551s-1.65-3.55-3.684-3.55h-5.594c-2.904 0-5.565-1.413-7.118-3.778l-3.736-5.693h59.607l-3.737 5.692c-1.553 2.366-4.213 3.778-7.117 3.778H34.867c-2.035 0-3.684 1.59-3.684 3.551s1.65 3.55 3.684 3.55H56.12c5.444 0 10.433-2.647 13.344-7.082l3.737-5.692a6.882 6.882 0 0 0 .227-7.223c-1.296-2.268-3.769-3.676-6.455-3.676h-.065L43.465 36.888c2.85.641 5.482 1.356 8.19 2.091 8.905 2.418 18.115 4.919 36.249 4.919 7.947 0 14.678-.466 20.974-1.456a8.16 8.16 0 0 0 2.915 2.395v70.723c-2.725 1.132-4.877 3.36-5.808 6.231l-3.081 9.503c-1.622 5.001-.669 10.509 2.548 14.733l3.625 4.759a10.68 10.68 0 0 0 2.716 2.5v4.349H101.65c-6.742 0-12.227 5.286-12.227 11.785 0 6.498 5.485 11.785 12.227 11.785h44.74c6.742 0 12.227-5.287 12.227-11.785 0-6.499-5.485-11.785-12.227-11.785h-10.142v-4.349a10.697 10.697 0 0 0 2.716-2.5l3.624-4.759c3.218-4.224 4.171-9.732 2.548-14.733l-3.08-9.503c-.931-2.871-3.083-5.099-5.808-6.231v-12.806c0-1.962-1.649-3.551-3.684-3.551-2.034 0-3.683 1.59-3.683 3.551v11.984h-9.719v-69.03h9.719v30.848c0 1.962 1.649 3.551 3.683 3.551 2.035 0 3.684-1.59 3.684-3.55v-31.72a8.165 8.165 0 0 0 2.915-2.396c6.295.99 13.022 1.457 20.974 1.457 18.134 0 27.343-2.5 36.249-4.919 2.796-.759 5.514-1.496 8.472-2.153l-23.726 67.728h-.066c-2.686 0-5.158 1.408-6.454 3.676a6.882 6.882 0 0 0 .227 7.223l3.737 5.692c2.91 4.435 7.899 7.083 13.343 7.083h37.899c5.444 0 10.433-2.648 13.344-7.083l3.737-5.692a6.886 6.886 0 0 0 .227-7.223zm-213.638-4.419H15.21l18.277-52.173v52.173zm25.645-.001H40.855V51.637l18.278 52.173zm28.771-67.014c-17.116 0-25.439-2.26-34.25-4.653-3.942-1.07-7.981-2.167-12.836-3.05 7.723-.67 18.072.532 18.128.538 1.141.102 26.363 2.278 46.018-2.617l1.746 8.567c-5.622.825-11.682 1.215-18.806 1.215zm36.116-27.57l1.722 5.11h-3.445l1.723-5.11zm22.37 155.51c2.679 0 4.859 2.102 4.859 4.684 0 2.583-2.18 4.684-4.859 4.684h-44.74c-2.68 0-4.86-2.101-4.86-4.684 0-2.582 2.18-4.684 4.86-4.684h13.827c2.035 0 3.684-1.59 3.684-3.55v-6.12h9.718v6.12c0 1.961 1.649 3.55 3.684 3.55h13.827zm-14.29-42.897c1.346 0 2.52.832 2.922 2.07l3.081 9.503a9.206 9.206 0 0 1-1.455 8.412l-3.624 4.759a3.57 3.57 0 0 1-2.83 1.381h-12.349a3.567 3.567 0 0 1-2.829-1.381l-3.625-4.759a9.206 9.206 0 0 1-1.455-8.412l3.081-9.503c.401-1.238 1.575-2.07 2.921-2.07H132.1zm4.202-98.433l-2.969 14.568a.809.809 0 0 1-.798.632h-17.031a.808.808 0 0 1-.798-.632l-2.969-14.568a1.587 1.587 0 0 1 .358-1.366 1.708 1.708 0 0 1 1.322-.602h21.204c.704 0 1.131.377 1.322.602.193.224.494.7.359 1.366zm78.25 28.974l18.277 52.174h-18.277V52.38zm-7.368 0v52.174h-18.277l18.277-52.174zm29.751 64.969c-1.553 2.365-4.213 3.778-7.117 3.778h-37.899c-2.904 0-5.565-1.412-7.118-3.778l-3.736-5.693 59.607.001-3.737 5.692z" fill="#fcbf60"/></svg>