<svg id="Calque_1" xmlns="http://www.w3.org/2000/svg" viewBox="0 0 68 80"><style>.st0{fill:rgba(0,101,202, 0.7)}</style><path class="st0" d="M34 80c-.8 0-1.7-.3-2.4-.9C28.4 76.4 0 52.4 0 34.3 0 15.4 15.3 0 34 0s34 15.4 34 34.3c0 8-5.4 18-16.1 29.8-7.7 8.5-15.2 14.8-15.5 15-.7.6-1.6.9-2.4.9zm0-72.4c-14.6 0-26.4 12-26.4 26.7 0 11.2 17.3 28.8 26.4 36.9 9.1-8.1 26.4-25.7 26.4-36.9C60.4 19.6 48.6 7.6 34 7.6z"/><path class="st0" d="M34 41c5.2 0 9.4-4.3 9.4-9.5 0-5.3-4.2-9.5-9.4-9.5s-9.4 4.3-9.4 9.5S28.8 41 34 41z"/></svg>