<svg id="Calque_1" xmlns="http://www.w3.org/2000/svg" viewBox="0 0 256 209"><style>.st0{fill:#fff}</style><path class="st0" d="M256 25.5c-9.4 4.2-19.5 7-30.2 8.3C236.6 27.3 245 17 248.9 4.7c-10.1 6-21.4 10.4-33.4 12.7C206 7.2 192.3.8 177.2.8c-29 0-52.5 23.5-52.5 52.5 0 4.1.5 8.1 1.4 12-43.7-2.2-82.4-23.1-108.3-54.9-4.5 7.8-7.1 16.8-7.1 26.4 0 18.2 9.3 34.3 23.4 43.7-8.6-.3-16.7-2.6-23.8-6.6v.7c0 25.4 18.1 46.7 42.1 51.5-4.4 1.2-9 1.8-13.8 1.8-3.4 0-6.7-.3-9.9-.9 6.7 20.9 26.1 36.1 49.1 36.5-18 14.1-40.6 22.5-65.2 22.5-4.2 0-8.4-.2-12.5-.7 23.2 14.9 50.9 23.6 80.5 23.6 96.6 0 149.4-80 149.4-149.4 0-2.3-.1-4.5-.2-6.8C240.1 45.2 249 36 256 25.5"/></svg>